<?xml version="1.0" encoding="UTF-8" standalone="no"?>
<!-- Created with Inkscape (http://www.inkscape.org/) -->

<svg
   xmlns:dc="http://purl.org/dc/elements/1.1/"
   xmlns:cc="http://creativecommons.org/ns#"
   xmlns:rdf="http://www.w3.org/1999/02/22-rdf-syntax-ns#"
   xmlns:svg="http://www.w3.org/2000/svg"
   xmlns="http://www.w3.org/2000/svg"
   xmlns:sodipodi="http://sodipodi.sourceforge.net/DTD/sodipodi-0.dtd"
   xmlns:inkscape="http://www.inkscape.org/namespaces/inkscape"
   width="210mm"
   height="297mm"
   id="svg2"
   version="1.1"
   inkscape:version="0.48.2 r9819"
   sodipodi:docname="Documento nuevo 1">
  <defs
     id="defs4" />
  <sodipodi:namedview
     id="base"
     pagecolor="#ffffff"
     bordercolor="#666666"
     borderopacity="1.0"
     inkscape:pageopacity="0.0"
     inkscape:pageshadow="2"
     inkscape:zoom="1.4"
     inkscape:cx="400.7901"
     inkscape:cy="912.72111"
     inkscape:document-units="px"
     inkscape:current-layer="layer1"
     showgrid="false"
     inkscape:window-width="1366"
     inkscape:window-height="706"
     inkscape:window-x="-8"
     inkscape:window-y="-8"
     inkscape:window-maximized="1" />
  <metadata
     id="metadata7">
    <rdf:RDF>
      <cc:Work
         rdf:about="">
        <dc:format>image/svg+xml</dc:format>
        <dc:type
           rdf:resource="http://purl.org/dc/dcmitype/StillImage" />
        <dc:title></dc:title>
      </cc:Work>
    </rdf:RDF>
  </metadata>
  <g
     inkscape:label="Capa 1"
     inkscape:groupmode="layer"
     id="layer1">
    <g
       id="g3021"
       transform="matrix(0.92857143,0,0,0.57594789,-7.6785733,-0.44547202)">
      <path
         style="fill:#fbfbfb"
         d="m 12.500003,52.005046 0,-41.142857 164.999997,0 165,0 0,41.142857 0,41.142856 -165,0 -164.999997,0 0,-41.142856 z"
         id="path3031"
         inkscape:connector-curvature="0" />
      <path
         style="fill:#a0a0a0"
         d="m 13.963481,91.37822 c 0.942641,-2.434601 52.629423,-78.479796 54.091122,-79.582632 0.688233,-0.519265 3.600344,-0.896684 7.023284,-0.91024 5.159037,-0.02043 6.032192,0.173082 7.415731,1.643523 2.216556,2.355782 53.388822,78.417713 53.569242,79.624765 0.11826,0.791246 -1.59983,0.994266 -8.41422,0.994266 -7.97243,0 -8.67096,-0.114938 -10.13102,-1.667021 C 116.65512,90.564014 106.93933,75.998798 95.926969,59.11373 84.91461,42.228662 75.527775,28.396776 75.067337,28.376203 74.606898,28.355632 64.783812,42.51124 53.238255,59.833111 41.692698,77.154982 31.724476,91.726609 31.086652,92.214505 c -0.749617,0.573408 -4.103187,0.895269 -9.484025,0.91024 l -8.324342,0.02316 0.685196,-1.769682 z m 129.503499,0.617835 c -0.24757,-0.633513 -0.45012,-18.629468 -0.45012,-39.991009 0,-21.361542 0.20255,-39.357497 0.45012,-39.991012 0.4034,-1.032257 4.97621,-1.151845 44.04426,-1.151845 39.06805,0 43.64086,0.119588 44.04425,1.151845 0.69897,1.788592 0.53047,8.012332 -0.27309,10.087728 l -0.72322,1.867886 -34.89444,0 -34.89444,0 0.20754,9.28445 0.20756,9.28445 32.62921,0.184371 c 29.62461,0.167394 32.71457,0.297555 33.55618,1.413515 1.37406,1.821982 1.20305,10.042158 -0.23836,11.457558 -1.02402,1.005543 -5.11558,1.144302 -33.74158,1.144302 l -32.57624,0 0,11.651075 0,11.651074 34.87229,0 34.87228,0 0.72322,1.867886 c 0.80356,2.075399 0.97206,8.299133 0.27309,10.087726 -0.40339,1.032256 -4.9762,1.151847 -44.04425,1.151847 -39.06805,0 -43.64086,-0.119591 -44.04426,-1.151847 z m 100.85394,0 c -0.24758,-0.633513 -0.45013,-18.629468 -0.45013,-39.991009 0,-21.361542 0.20255,-39.357497 0.45013,-39.991012 0.40226,-1.029353 4.44394,-1.151832 38.00561,-1.15172 46.0582,1.53e-4 49.36926,0.403141 55.59631,6.766611 3.10407,3.172085 3.80021,6.134387 3.80021,16.171317 0,9.756438 -0.69649,12.972792 -3.42767,15.828885 -2.27115,2.37502 -10.07712,6.372549 -12.48077,6.391552 -3.99216,0.03156 -3.78432,0.756653 4.77195,16.648181 4.55363,8.45744 8.76777,16.52509 9.36477,17.928105 l 1.08543,2.550937 -8.59101,0 c -5.94215,0 -8.88049,-0.284257 -9.52988,-0.921935 -0.51638,-0.507062 -5.02505,-8.53538 -10.01925,-17.840705 l -9.08038,-16.918775 -21.07385,0 -21.07385,0 0,16.688862 c 0,9.178874 -0.20255,17.207193 -0.45013,17.840706 -0.66769,1.708579 -16.2298,1.708579 -16.89749,0 z m 77.88304,-49.977573 c 1.9152,-1.029606 2.41248,-1.841267 2.83892,-4.633685 0.28436,-1.861984 0.29079,-5.000582 0.0143,-6.974661 -0.87332,-6.235194 0.1631,-6.042549 -33.87708,-6.296938 l -29.51158,-0.220545 0,9.38363 c 0,5.160997 0.24018,9.619471 0.53373,9.907722 0.29354,0.28825 13.39158,0.424786 29.10674,0.303413 25.31657,-0.195528 28.83765,-0.362942 30.89495,-1.468936 z M 54.028093,66.945268 c 0,-1.268827 20.172846,-30.596658 21.039489,-30.587781 1.034749,0.0106 20.528876,29.922384 20.023916,30.724689 -0.5449,0.865761 -41.063405,0.730669 -41.063405,-0.136908 z"
         id="path3029"
         inkscape:connector-curvature="0" />
      <path
         style="fill:#8ec642"
         d="m 41.171543,52.005046 27.931387,-41.142857 5.845881,0 5.845881,0 27.640698,40.960808 27.64069,40.960809 -8.14687,0.207025 c -5.09015,0.129349 -8.44857,-0.08622 -8.95096,-0.574536 C 118.536,91.986436 108.66349,77.170175 97.039329,59.491267 85.415172,41.812359 75.537351,27.232142 75.088617,27.090786 74.639883,26.949428 64.330186,41.754451 52.178181,59.990837 l -22.094557,33.157065 -8.421735,0 -8.421734,0 27.931388,-41.142856 z m 103.328457,0 0,-41.142857 43.04123,0 43.04122,0 -0.21538,6.007585 -0.21538,6.007585 -34.85393,0.364097 -34.85394,0.364096 0,9.830594 0,9.830594 33.1854,0.189544 33.18539,0.189545 0,5.818041 c 0,3.199922 -0.0834,5.891421 -0.18539,5.981108 -0.10197,0.08969 -15.0354,0.335452 -33.1854,0.546144 l -33,0.383076 0,12.015171 0,12.01517 34.85394,0.364096 34.85393,0.364097 0.21538,6.007585 0.21538,6.007585 -43.04122,0 -43.04123,0 0,-41.142856 z m 100.85394,0 0,-41.142857 35.41011,0.02248 c 19.47556,0.01237 37.89463,0.3391 40.93128,0.726075 3.22043,0.410397 7.42576,1.578778 10.09172,2.803824 8.07394,3.710076 10.34546,8.639714 9.84927,21.374847 -0.24211,6.214101 -0.59171,7.99847 -2.06936,10.56213 -2.65276,4.602391 -7.56233,7.477443 -15.79168,9.247629 -1.12163,0.24127 -2.03932,0.860438 -2.03932,1.37593 0,0.515492 4.01757,8.380407 8.92795,17.477589 4.91038,9.097183 9.12177,17.036275 9.35865,17.642437 0.37167,0.951099 -0.7162,1.073777 -7.94006,0.895385 l -8.37075,-0.206712 -9.42259,-17.476612 c -5.18243,-9.612136 -9.81149,-17.886219 -10.2868,-18.386851 -0.64995,-0.684568 -5.80601,-0.910241 -20.79679,-0.910241 -10.96292,0 -20.46043,0.198902 -21.10559,0.442005 -1.02616,0.38667 -1.17301,2.711292 -1.17301,18.5689 l 0,18.126895 -7.78652,0 -7.78651,0 0,-41.142856 z m 74.58973,-8.465413 c 4.83424,-1.195313 6.24173,-3.323827 6.24173,-9.439235 0,-2.730683 -0.377,-5.777365 -0.83777,-6.770404 -1.64923,-3.55435 -3.2366,-3.724442 -34.75774,-3.724442 l -29.29213,0 -0.20865,9.427987 c -0.11475,5.185393 -0.0418,9.854925 0.16213,10.376738 0.49374,1.263483 53.63198,1.380597 58.69243,0.129356 z M 55.183786,66.022744 c 2.424486,-4.399209 19.390347,-28.863328 19.90879,-28.707708 0.827414,0.248362 18.980461,27.878993 18.980461,28.890033 0,0.466821 -7.064529,0.727916 -19.695451,0.727916 -15.529526,0 -19.589343,-0.192532 -19.1938,-0.910241 z"
         id="path3027"
         inkscape:connector-curvature="0" />
      <path
         style="fill:#5d5d5d"
         d="m 41.171543,52.005046 27.931387,-41.142857 5.845881,0 5.845881,0 27.640698,40.960808 27.64069,40.960809 -8.14687,0.207025 c -5.09015,0.129349 -8.44857,-0.08622 -8.95096,-0.574536 C 118.536,91.986436 108.66349,77.170175 97.039329,59.491267 85.415172,41.812359 75.537351,27.232142 75.088617,27.090786 74.639883,26.949428 64.330186,41.754451 52.178181,59.990837 l -22.094557,33.157065 -8.421735,0 -8.421734,0 27.931388,-41.142856 z m 103.328457,0 0,-41.142857 43.04123,0 43.04122,0 -0.21538,6.007585 -0.21538,6.007585 -34.85393,0.364097 -34.85394,0.364096 0,9.830594 0,9.830594 33.1854,0.189544 33.18539,0.189545 0,5.818041 c 0,3.199922 -0.0834,5.891421 -0.18539,5.981108 -0.10197,0.08969 -15.0354,0.335452 -33.1854,0.546144 l -33,0.383076 0,12.015171 0,12.01517 34.85394,0.364096 34.85393,0.364097 0.21538,6.007585 0.21538,6.007585 -43.04122,0 -43.04123,0 0,-41.142856 z m 100.85394,0 0,-41.142857 35.41011,0.02248 c 19.47556,0.01237 37.89463,0.3391 40.93128,0.726075 3.22043,0.410397 7.42576,1.578778 10.09172,2.803824 8.07394,3.710076 10.34546,8.639714 9.84927,21.374847 -0.24211,6.214101 -0.59171,7.99847 -2.06936,10.56213 -2.65276,4.602391 -7.56233,7.477443 -15.79168,9.247629 -1.12163,0.24127 -2.03932,0.860438 -2.03932,1.37593 0,0.515492 4.01757,8.380407 8.92795,17.477589 4.91038,9.097183 9.12177,17.036275 9.35865,17.642437 0.37167,0.951099 -0.7162,1.073777 -7.94006,0.895385 l -8.37075,-0.206712 -9.42259,-17.476612 c -5.18243,-9.612136 -9.81149,-17.886219 -10.2868,-18.386851 -0.64995,-0.684568 -5.80601,-0.910241 -20.79679,-0.910241 -10.96292,0 -20.46043,0.198902 -21.10559,0.442005 -1.02616,0.38667 -1.17301,2.711292 -1.17301,18.5689 l 0,18.126895 -7.78652,0 -7.78651,0 0,-41.142856 z m 74.58973,-8.465413 c 4.83424,-1.195313 6.24173,-3.323827 6.24173,-9.439235 0,-2.730683 -0.377,-5.777365 -0.83777,-6.770404 -1.64923,-3.55435 -3.2366,-3.724442 -34.75774,-3.724442 l -29.29213,0 -0.20865,9.427987 c -0.11475,5.185393 -0.0418,9.854925 0.16213,10.376738 0.49374,1.263483 53.63198,1.380597 58.69243,0.129356 z"
         id="path3025"
         inkscape:connector-curvature="0" />
      <path
         style="fill:#040404"
         d="m 13.983149,92.682034 c 0,-0.256222 0.46658,-0.829673 1.036844,-1.274336 0.570264,-0.444656 13.135395,-18.667381 27.922513,-40.494941 l 26.885669,-39.686472 5.448274,0 c 2.99655,0 5.408104,0.163843 5.359007,0.364096 -0.139658,0.569633 52.813624,78.909727 53.951804,79.817317 0.55763,0.444663 1.01387,1.018114 1.01387,1.274336 0,0.256229 -3.68126,0.465868 -8.18058,0.465868 -7.12342,0 -8.23934,-0.164681 -8.63529,-1.274336 C 118.53517,91.172681 108.83668,76.099103 97.233072,58.376727 83.235627,36.99822 75.722356,26.160303 74.907684,26.172288 74.11594,26.183935 66.172517,37.449189 52.544947,57.886815 40.92079,75.319871 31.095415,90.385323 30.710781,91.365593 c -0.6822,1.738639 -0.89569,1.782309 -8.713483,1.782309 -4.407782,0 -8.014149,-0.209639 -8.014149,-0.465868 z m 130.887641,-40.676988 0,-41.142857 42.90518,0 c 38.81925,0 42.86232,0.109692 42.45506,1.151845 -0.24757,0.633515 -0.45013,3.091164 -0.45013,5.461441 l 0,4.309596 -33.97062,0 c -26.12651,0 -34.26531,0.21159 -35.24681,0.916335 -1.12033,0.804415 -1.25085,2.160743 -1.0687,11.10493 l 0.20748,10.188596 33.18539,0.189545 33.1854,0.189544 0,5.089849 0,5.089848 -31.93639,0 c -20.59642,0 -32.44572,0.267664 -33.37079,0.753813 -1.33143,0.699702 -1.4344,1.638753 -1.4344,13.081838 0,11.443085 0.10297,12.382136 1.4344,13.081838 0.92856,0.487985 13.35034,0.753813 35.22472,0.753813 l 33.79032,0 0,4.309594 c 0,2.37028 0.20256,4.827928 0.45013,5.461441 0.40726,1.042152 -3.63581,1.151847 -42.45506,1.151847 l -42.90518,0 0,-41.142856 z m 100.85393,-0.06086 0,-41.203713 38.19101,0.242905 c 27.93739,0.177689 38.58922,0.476857 39.67416,1.114293 0.81573,0.479264 3.31854,1.428685 5.5618,2.109825 8.49303,2.578809 11.86517,8.326749 11.86517,20.22461 0,12.011171 -4.279,17.357465 -16.07309,20.082159 -2.11042,0.487554 -3.99128,1.280886 -4.17967,1.76296 -0.33317,0.852571 16.65591,33.277483 18.70785,35.705312 0.95029,1.124365 0.40077,1.19966 -7.35811,1.008189 -6.8822,-0.169836 -8.41495,-0.408209 -8.55168,-1.329948 -0.34098,-2.298656 -18.35168,-34.982067 -19.65479,-35.666883 -0.78824,-0.414243 -9.86546,-0.711989 -21.70601,-0.711989 -16.62835,0 -20.5103,0.188224 -21.22084,1.028933 -0.62701,0.741864 -0.80752,6.024286 -0.64699,18.933662 l 0.22265,17.90473 -7.41573,-6.63e-4 -7.41573,-6.7e-4 0,-41.203713 z m 74.65414,-7.607361 c 5.33246,-1.454361 6.14685,-2.711606 6.42959,-9.926002 0.22298,-5.689385 0.0684,-6.666418 -1.33148,-8.413925 -0.87106,-1.087399 -2.81998,-2.360537 -4.33093,-2.829195 -3.74222,-1.160748 -56.07423,-1.813425 -58.92132,-0.734859 l -2.03932,0.772561 0,10.455444 c 0,5.750494 0.22247,10.673902 0.49438,10.940905 0.81907,0.804289 56.68781,0.556357 59.69908,-0.264929 z"
         id="path3023"
         inkscape:connector-curvature="0" />
    </g>
  </g>
</svg>
