<?xml version="1.0" encoding="UTF-8" standalone="no"?>
<!-- Created with Inkscape (http://www.inkscape.org/) -->

<svg
   xmlns:dc="http://purl.org/dc/elements/1.1/"
   xmlns:cc="http://creativecommons.org/ns#"
   xmlns:rdf="http://www.w3.org/1999/02/22-rdf-syntax-ns#"
   xmlns:svg="http://www.w3.org/2000/svg"
   xmlns="http://www.w3.org/2000/svg"
   xmlns:sodipodi="http://sodipodi.sourceforge.net/DTD/sodipodi-0.dtd"
   xmlns:inkscape="http://www.inkscape.org/namespaces/inkscape"
   width="210mm"
   height="297mm"
   id="svg2"
   version="1.1"
   inkscape:version="0.48.2 r9819"
   sodipodi:docname="Imagen.svg">
  <defs
     id="defs4" />
  <sodipodi:namedview
     id="base"
     pagecolor="#ffffff"
     bordercolor="#666666"
     borderopacity="1.0"
     inkscape:pageopacity="0.0"
     inkscape:pageshadow="2"
     inkscape:zoom="0.7"
     inkscape:cx="350"
     inkscape:cy="750.04818"
     inkscape:document-units="px"
     inkscape:current-layer="layer1"
     showgrid="false"
     inkscape:window-width="1366"
     inkscape:window-height="706"
     inkscape:window-x="-8"
     inkscape:window-y="-8"
     inkscape:window-maximized="1" />
  <metadata
     id="metadata7">
    <rdf:RDF>
      <cc:Work
         rdf:about="">
        <dc:format>image/svg+xml</dc:format>
        <dc:type
           rdf:resource="http://purl.org/dc/dcmitype/StillImage" />
        <dc:title></dc:title>
      </cc:Work>
    </rdf:RDF>
  </metadata>
  <g
     inkscape:label="Capa 1"
     inkscape:groupmode="layer"
     id="layer1">
    <path
       inkscape:connector-curvature="0"
       id="path2998"
       d="m 61.560011,76.647901 15.919064,-17.92857 3.332842,0 3.332844,0 15.762404,17.84924 15.762395,17.849244 -4.89546,0.09005 c -2.6925,0.04954 -4.95149,-0.02186 -5.01997,-0.15866 -0.40357,-0.806203 -24.480638,-28.465789 -24.857902,-28.556612 -0.252613,-0.06081 -6.125343,6.390682 -13.050506,14.336656 l -12.591211,14.447218 -4.806782,0 -4.806786,0 15.919068,-17.928566 z m 58.890469,0 0,-17.92857 24.53067,0 24.5307,0 -0.12277,2.617889 -0.12274,2.617888 -19.86447,0.15866 -19.86447,0.15866 0,4.283818 0,4.283817 18.91352,0.08259 18.91351,0.0826 0,2.53529 c 0,1.394411 -0.0476,2.567269 -0.10569,2.606351 -0.0581,0.03909 -8.5692,0.14618 -18.91351,0.23799 l -18.80785,0.166932 0,5.235777 0,5.235777 19.86446,0.158662 19.86448,0.15866 0.12274,2.617885 0.12277,2.617886 -24.5307,0 -24.53067,0 0,-17.928566 z m 57.48015,0 0,-17.92857 20.39276,0.0063 c 11.40806,0.0035 21.69627,0.147153 23.35133,0.32602 1.62719,0.175853 4.12032,0.727246 5.54028,1.225315 4.58265,1.607412 5.87979,3.770606 5.57957,9.304763 -0.13665,2.518789 -0.38015,3.550862 -1.07278,4.547114 -1.35222,1.944979 -4.39686,3.312387 -9.09612,4.085264 -0.63926,0.105138 -1.16229,0.374948 -1.16229,0.599582 0,0.22463 2.28976,3.651878 5.08836,7.616101 2.79859,3.964221 5.1988,7.423796 5.33381,7.687935 0.21185,0.414503 -0.40971,0.46792 -4.53952,0.390176 l -4.78498,-0.09008 -5.5124,-7.836898 c -3.86737,-5.498179 -5.76543,-7.887959 -6.36024,-8.007991 -1.17275,-0.236657 -22.38838,-0.22491 -23.21363,0.01285 -0.58485,0.168497 -0.66855,1.181483 -0.66855,8.091656 l 0,7.899041 -4.4378,0 -4.4378,0 0,-17.928566 z m 42.51126,-3.688922 c 2.75521,-0.520874 3.55738,-1.448403 3.55738,-4.113277 0,-1.189931 -0.21486,-2.517565 -0.47747,-2.950298 -0.93996,-1.548856 -1.84465,-1.622976 -19.80965,-1.622976 l -16.69459,0 -0.11891,4.108375 c -0.0654,2.259608 -0.0239,4.294422 0.0924,4.521807 0.2814,0.550582 30.56673,0.601616 33.45084,0.05637 z"
       style="fill:#0b0b0b" />
  </g>
</svg>
